<mxfile host="www.draw.io" modified="2019-11-08T07:19:42.710Z" agent="Mozilla/5.0 (Windows NT 10.0; Win64; x64) AppleWebKit/537.36 (KHTML, like Gecko) Chrome/78.0.3904.87 Safari/537.36" etag="7otswi3BUMf1FpfNcqcq" version="12.2.2" type="github" pages="1">
  <diagram id="vwQviOi1Pnr1UkrKsVz1" name="Page-1">
    <mxGraphModel dx="855" dy="466" grid="1" gridSize="10" guides="1" tooltips="1" connect="1" arrows="1" fold="1" page="1" pageScale="1" pageWidth="1100" pageHeight="850" math="0" shadow="0">
      <root>
        <mxCell id="0"/>
        <mxCell id="1" parent="0"/>
        <mxCell id="fd46tZJoOYs0raiZj1ka-7" value="" style="rounded=0;whiteSpace=wrap;html=1;strokeWidth=2;fontFamily=Verdana;" parent="1" vertex="1">
          <mxGeometry x="405" y="629" width="120" height="60" as="geometry"/>
        </mxCell>
        <mxCell id="k2AahK0M1OR1CV_bx5RK-2" value="&lt;font style=&quot;font-size: 18px&quot;&gt;&lt;b&gt;MCU&lt;/b&gt;&lt;/font&gt;" style="rounded=0;whiteSpace=wrap;html=1;fillColor=#d5e8d4;strokeColor=#82b366;fontFamily=Verdana;strokeWidth=2;" parent="1" vertex="1">
          <mxGeometry x="400" y="120" width="130" height="440" as="geometry"/>
        </mxCell>
        <mxCell id="k2AahK0M1OR1CV_bx5RK-3" value="EN POWER" style="endArrow=classic;html=1;exitX=0.003;exitY=0.09;exitDx=0;exitDy=0;exitPerimeter=0;fontFamily=Verdana;strokeWidth=2;" parent="1" source="k2AahK0M1OR1CV_bx5RK-2" edge="1">
          <mxGeometry width="50" height="50" relative="1" as="geometry">
            <mxPoint x="140" y="170" as="sourcePoint"/>
            <mxPoint x="262" y="160" as="targetPoint"/>
          </mxGeometry>
        </mxCell>
        <mxCell id="k2AahK0M1OR1CV_bx5RK-6" value="&lt;font style=&quot;font-size: 18px&quot;&gt;&lt;b&gt;DUT&lt;/b&gt;&lt;/font&gt;" style="rounded=0;whiteSpace=wrap;html=1;fillColor=#ffe6cc;strokeColor=#d79b00;fontFamily=Verdana;strokeWidth=2;" parent="1" vertex="1">
          <mxGeometry x="80" y="260" width="180" height="300" as="geometry"/>
        </mxCell>
        <mxCell id="k2AahK0M1OR1CV_bx5RK-15" value="UART" style="text;html=1;resizable=0;points=[];autosize=1;align=left;verticalAlign=top;spacingTop=-4;fontFamily=Verdana;strokeWidth=2;" parent="1" vertex="1">
          <mxGeometry x="400" y="335" width="50" height="20" as="geometry"/>
        </mxCell>
        <mxCell id="k2AahK0M1OR1CV_bx5RK-18" value="ADC" style="text;html=1;resizable=0;points=[];autosize=1;align=left;verticalAlign=top;spacingTop=-4;fontFamily=Verdana;strokeWidth=2;" parent="1" vertex="1">
          <mxGeometry x="400" y="270" width="40" height="20" as="geometry"/>
        </mxCell>
        <mxCell id="k2AahK0M1OR1CV_bx5RK-19" value="3.3V" style="text;html=1;resizable=0;points=[];autosize=1;align=center;verticalAlign=top;spacingTop=-4;rounded=0;fillColor=none;strokeColor=#000000;fontFamily=Verdana;strokeWidth=2;" parent="1" vertex="1">
          <mxGeometry x="212.5" y="270" width="40" height="20" as="geometry"/>
        </mxCell>
        <mxCell id="k2AahK0M1OR1CV_bx5RK-20" value="" style="endArrow=classic;html=1;entryX=-0.018;entryY=0.342;entryDx=0;entryDy=0;entryPerimeter=0;fontFamily=Verdana;strokeWidth=2;" parent="1" edge="1">
          <mxGeometry width="50" height="50" relative="1" as="geometry">
            <mxPoint x="261" y="279.5" as="sourcePoint"/>
            <mxPoint x="398.8399999999999" y="278.6200000000001" as="targetPoint"/>
          </mxGeometry>
        </mxCell>
        <mxCell id="k2AahK0M1OR1CV_bx5RK-22" value="Flashing MCU" style="text;html=1;resizable=0;points=[];autosize=1;align=center;verticalAlign=top;spacingTop=-4;rounded=0;fillColor=none;strokeColor=#000000;fontFamily=Verdana;strokeWidth=2;" parent="1" vertex="1">
          <mxGeometry x="152.5" y="300" width="100" height="20" as="geometry"/>
        </mxCell>
        <mxCell id="k2AahK0M1OR1CV_bx5RK-23" value="" style="endArrow=classic;html=1;entryX=-0.018;entryY=0.342;entryDx=0;entryDy=0;entryPerimeter=0;fontFamily=Verdana;strokeWidth=2;" parent="1" edge="1">
          <mxGeometry width="50" height="50" relative="1" as="geometry">
            <mxPoint x="397.8399999999999" y="310.1200000000001" as="sourcePoint"/>
            <mxPoint x="260" y="311" as="targetPoint"/>
          </mxGeometry>
        </mxCell>
        <mxCell id="k2AahK0M1OR1CV_bx5RK-24" value="GPIO" style="text;html=1;resizable=0;points=[];autosize=1;align=left;verticalAlign=top;spacingTop=-4;fontFamily=Verdana;strokeWidth=2;" parent="1" vertex="1">
          <mxGeometry x="400" y="300" width="50" height="20" as="geometry"/>
        </mxCell>
        <mxCell id="k2AahK0M1OR1CV_bx5RK-33" value="" style="rounded=0;whiteSpace=wrap;html=1;strokeColor=#000000;fillColor=none;align=center;fontFamily=Verdana;strokeWidth=2;" parent="1" vertex="1">
          <mxGeometry x="610" y="310" width="110" height="90" as="geometry"/>
        </mxCell>
        <mxCell id="k2AahK0M1OR1CV_bx5RK-34" value="" style="endArrow=none;html=1;entryX=0.996;entryY=0.009;entryDx=0;entryDy=0;entryPerimeter=0;fontFamily=Verdana;strokeWidth=2;" parent="1" target="k2AahK0M1OR1CV_bx5RK-33" edge="1">
          <mxGeometry width="50" height="50" relative="1" as="geometry">
            <mxPoint x="610" y="400" as="sourcePoint"/>
            <mxPoint x="660" y="350" as="targetPoint"/>
          </mxGeometry>
        </mxCell>
        <mxCell id="k2AahK0M1OR1CV_bx5RK-35" value="UART" style="text;html=1;resizable=0;points=[];autosize=1;align=left;verticalAlign=top;spacingTop=-4;fontStyle=1;fontFamily=Verdana;strokeWidth=2;" parent="1" vertex="1">
          <mxGeometry x="620" y="330" width="50" height="20" as="geometry"/>
        </mxCell>
        <mxCell id="k2AahK0M1OR1CV_bx5RK-36" value="USB" style="text;html=1;resizable=0;points=[];autosize=1;align=left;verticalAlign=top;spacingTop=-4;fontStyle=1;fontFamily=Verdana;strokeWidth=2;" parent="1" vertex="1">
          <mxGeometry x="670" y="370" width="40" height="20" as="geometry"/>
        </mxCell>
        <mxCell id="k2AahK0M1OR1CV_bx5RK-37" value="" style="shape=mxgraph.signs.tech.computer;html=1;fillColor=#000000;strokeColor=none;verticalLabelPosition=bottom;verticalAlign=top;align=center;rounded=0;fontFamily=Verdana;strokeWidth=2;" parent="1" vertex="1">
          <mxGeometry x="800" y="240" width="200" height="200" as="geometry"/>
        </mxCell>
        <mxCell id="k2AahK0M1OR1CV_bx5RK-38" value="" style="shape=flexArrow;endArrow=classic;html=1;entryX=0;entryY=0.45;entryDx=0;entryDy=0;entryPerimeter=0;fontFamily=Verdana;strokeWidth=2;" parent="1" target="k2AahK0M1OR1CV_bx5RK-37" edge="1">
          <mxGeometry width="50" height="50" relative="1" as="geometry">
            <mxPoint x="720" y="330" as="sourcePoint"/>
            <mxPoint x="780" y="330" as="targetPoint"/>
          </mxGeometry>
        </mxCell>
        <mxCell id="k2AahK0M1OR1CV_bx5RK-39" value="" style="shape=flexArrow;endArrow=classic;html=1;entryX=0;entryY=0.45;entryDx=0;entryDy=0;entryPerimeter=0;fontFamily=Verdana;strokeWidth=2;" parent="1" edge="1">
          <mxGeometry width="50" height="50" relative="1" as="geometry">
            <mxPoint x="800" y="370" as="sourcePoint"/>
            <mxPoint x="720" y="370" as="targetPoint"/>
          </mxGeometry>
        </mxCell>
        <mxCell id="k2AahK0M1OR1CV_bx5RK-40" value="" style="shape=flexArrow;endArrow=classic;startArrow=classic;html=1;entryX=-0.009;entryY=0.559;entryDx=0;entryDy=0;entryPerimeter=0;exitX=1;exitY=0.545;exitDx=0;exitDy=0;exitPerimeter=0;fontFamily=Verdana;strokeWidth=2;" parent="1" source="k2AahK0M1OR1CV_bx5RK-2" target="k2AahK0M1OR1CV_bx5RK-33" edge="1">
          <mxGeometry width="50" height="50" relative="1" as="geometry">
            <mxPoint x="553" y="355" as="sourcePoint"/>
            <mxPoint x="610" y="350" as="targetPoint"/>
          </mxGeometry>
        </mxCell>
        <mxCell id="fd46tZJoOYs0raiZj1ka-2" value="GPIO" style="text;html=1;resizable=0;points=[];autosize=1;align=left;verticalAlign=top;spacingTop=-4;fontFamily=Verdana;strokeWidth=2;" parent="1" vertex="1">
          <mxGeometry x="400" y="150" width="50" height="20" as="geometry"/>
        </mxCell>
        <mxCell id="fd46tZJoOYs0raiZj1ka-5" value="START" style="edgeStyle=orthogonalEdgeStyle;rounded=0;orthogonalLoop=1;jettySize=auto;html=1;strokeWidth=2;fontFamily=Verdana;" parent="1" source="fd46tZJoOYs0raiZj1ka-4" target="k2AahK0M1OR1CV_bx5RK-2" edge="1">
          <mxGeometry relative="1" as="geometry"/>
        </mxCell>
        <mxCell id="fd46tZJoOYs0raiZj1ka-4" value="" style="pointerEvents=1;verticalLabelPosition=bottom;shadow=0;dashed=0;align=center;html=1;verticalAlign=top;shape=mxgraph.electrical.electro-mechanical.push_switch_no;strokeWidth=2;fontFamily=Verdana;" parent="1" vertex="1">
          <mxGeometry x="427.5" y="640" width="75" height="19" as="geometry"/>
        </mxCell>
        <mxCell id="EXfrNlrTUUlx0gC5OtA2-2" value="Power" style="edgeStyle=orthogonalEdgeStyle;rounded=0;orthogonalLoop=1;jettySize=auto;html=1;fontFamily=Verdana;strokeWidth=2;" parent="1" source="EXfrNlrTUUlx0gC5OtA2-3" edge="1">
          <mxGeometry relative="1" as="geometry">
            <mxPoint x="200" y="260" as="targetPoint"/>
          </mxGeometry>
        </mxCell>
        <mxCell id="EXfrNlrTUUlx0gC5OtA2-3" value="4V" style="rounded=0;whiteSpace=wrap;html=1;fillColor=#f5f5f5;strokeColor=#666666;fontColor=#333333;fontFamily=Verdana;strokeWidth=2;" parent="1" vertex="1">
          <mxGeometry x="140" y="130" width="120" height="60" as="geometry"/>
        </mxCell>
        <mxCell id="EXfrNlrTUUlx0gC5OtA2-4" value="" style="endArrow=classic;html=1;entryX=-0.018;entryY=0.342;entryDx=0;entryDy=0;entryPerimeter=0;fontFamily=Verdana;strokeWidth=2;" parent="1" edge="1">
          <mxGeometry width="50" height="50" relative="1" as="geometry">
            <mxPoint x="397.8399999999999" y="344.6200000000001" as="sourcePoint"/>
            <mxPoint x="260" y="345.5" as="targetPoint"/>
          </mxGeometry>
        </mxCell>
        <mxCell id="EXfrNlrTUUlx0gC5OtA2-5" value="TX/RX_MC" style="text;html=1;resizable=0;points=[];autosize=1;align=left;verticalAlign=top;spacingTop=-4;strokeColor=#000000;strokeWidth=2;" parent="1" vertex="1">
          <mxGeometry x="172.5" y="335" width="80" height="20" as="geometry"/>
        </mxCell>
        <mxCell id="JjIhW-UcZUR3wnMpWMtz-1" value="Test Control RELAY" style="text;html=1;resizable=0;points=[];autosize=1;align=center;verticalAlign=top;spacingTop=-4;rounded=0;fillColor=none;strokeColor=#000000;fontFamily=Verdana;strokeWidth=2;" vertex="1" parent="1">
          <mxGeometry x="122.5" y="370" width="130" height="20" as="geometry"/>
        </mxCell>
        <mxCell id="JjIhW-UcZUR3wnMpWMtz-2" value="" style="endArrow=classic;html=1;entryX=-0.018;entryY=0.342;entryDx=0;entryDy=0;entryPerimeter=0;fontFamily=Verdana;strokeWidth=2;" edge="1" parent="1">
          <mxGeometry width="50" height="50" relative="1" as="geometry">
            <mxPoint x="397.8399999999999" y="379.1200000000001" as="sourcePoint"/>
            <mxPoint x="260" y="380" as="targetPoint"/>
          </mxGeometry>
        </mxCell>
        <mxCell id="JjIhW-UcZUR3wnMpWMtz-3" value="GPIOs" style="text;html=1;resizable=0;points=[];autosize=1;align=left;verticalAlign=top;spacingTop=-4;fontFamily=Verdana;strokeWidth=2;" vertex="1" parent="1">
          <mxGeometry x="400" y="370" width="50" height="20" as="geometry"/>
        </mxCell>
        <mxCell id="JjIhW-UcZUR3wnMpWMtz-4" value="Check RELAY Feedback" style="text;html=1;resizable=0;points=[];autosize=1;align=center;verticalAlign=top;spacingTop=-4;rounded=0;fillColor=none;strokeColor=#000000;fontFamily=Verdana;strokeWidth=2;" vertex="1" parent="1">
          <mxGeometry x="102.5" y="440" width="150" height="20" as="geometry"/>
        </mxCell>
        <mxCell id="JjIhW-UcZUR3wnMpWMtz-5" value="" style="endArrow=classic;html=1;entryX=-0.018;entryY=0.342;entryDx=0;entryDy=0;entryPerimeter=0;fontFamily=Verdana;strokeWidth=2;" edge="1" parent="1">
          <mxGeometry width="50" height="50" relative="1" as="geometry">
            <mxPoint x="262.5" y="450" as="sourcePoint"/>
            <mxPoint x="400.3399999999999" y="449.1200000000001" as="targetPoint"/>
          </mxGeometry>
        </mxCell>
        <mxCell id="JjIhW-UcZUR3wnMpWMtz-6" value="GPIOs" style="text;html=1;resizable=0;points=[];autosize=1;align=left;verticalAlign=top;spacingTop=-4;fontFamily=Verdana;strokeWidth=2;" vertex="1" parent="1">
          <mxGeometry x="400" y="440" width="50" height="20" as="geometry"/>
        </mxCell>
        <mxCell id="JjIhW-UcZUR3wnMpWMtz-8" value="Flashing ZIGBEE" style="text;html=1;resizable=0;points=[];autosize=1;align=center;verticalAlign=top;spacingTop=-4;rounded=0;fillColor=none;strokeColor=#000000;fontFamily=Verdana;strokeWidth=2;" vertex="1" parent="1">
          <mxGeometry x="132.5" y="480" width="120" height="20" as="geometry"/>
        </mxCell>
        <mxCell id="JjIhW-UcZUR3wnMpWMtz-9" value="" style="endArrow=classic;html=1;entryX=-0.018;entryY=0.342;entryDx=0;entryDy=0;entryPerimeter=0;fontFamily=Verdana;strokeWidth=2;" edge="1" parent="1">
          <mxGeometry width="50" height="50" relative="1" as="geometry">
            <mxPoint x="397.8399999999999" y="490.1200000000001" as="sourcePoint"/>
            <mxPoint x="260" y="491" as="targetPoint"/>
          </mxGeometry>
        </mxCell>
        <mxCell id="JjIhW-UcZUR3wnMpWMtz-10" value="GPIO" style="text;html=1;resizable=0;points=[];autosize=1;align=left;verticalAlign=top;spacingTop=-4;fontFamily=Verdana;strokeWidth=2;" vertex="1" parent="1">
          <mxGeometry x="400" y="480" width="50" height="20" as="geometry"/>
        </mxCell>
      </root>
    </mxGraphModel>
  </diagram>
</mxfile>
